<svg height="512" viewBox="0 0 64 64" width="512" xmlns="http://www.w3.org/2000/svg" xmlns:xlink="http://www.w3.org/1999/xlink"><linearGradient id="gradient_ice" gradientUnits="userSpaceOnUse" x1="10.369" x2="69.687" y1="70.482" y2="8.883"><stop offset="0" stop-color="#fff200"/><stop offset="1" stop-color="#cd118c"/></linearGradient><linearGradient id="gradient_ice-2" x1="1.297" x2="60.615" xlink:href="#gradient_ice" y1="61.769" y2=".169"/><linearGradient id="gradient_ice-3" x1="4.41" x2="63.728" xlink:href="#gradient_ice" y1="64.766" y2="3.167"/><g id="Counter-shop-man-avatar-shopping-book_store" data-name="Counter-shop-man-avatar-shopping-book store"><path d="m57 36h-7v-4.35a10.023 10.023 0 0 0 5-8.65v-2h1a3.009 3.009 0 0 0 3-3v-1a3.009 3.009 0 0 0 -3-3v-4a5 5 0 0 0 -5-5h-10.72l-4.77-2.86a1 1 0 0 0 -1.51.86v11a3.009 3.009 0 0 0 -3 3v1a3.009 3.009 0 0 0 3 3h1v2a10.023 10.023 0 0 0 5 8.65v4.35h-7a5 5 0 0 0 -5 5v5h-14v-4h4a1 1 0 0 0 1-1v-8a1 1 0 0 0 -1-1h-14a1 1 0 0 0 -1 1v8a1 1 0 0 0 1 1h3v4h-4a1 1 0 0 0 -1 1v15a1 1 0 0 0 1 1h58a1 1 0 0 0 1-1v-21a5 5 0 0 0 -5-5zm-2-20h1a1 1 0 0 1 1 1v1a1 1 0 0 1 -1 1h-1zm-20 3h-1a1 1 0 0 1 -1-1v-1a1 1 0 0 1 1-1h1zm1-14.23 3.49 2.09a1 1 0 0 0 .51.14h11a3.009 3.009 0 0 1 3 3v3h-18zm1 18.23v-8h16v8a8 8 0 0 1 -16 0zm11 9.54v4.46a3 3 0 0 1 -6 0v-4.46a10.013 10.013 0 0 0 6 0zm-9 5.46h1.1a5 5 0 0 0 9.8 0h1.1v7h-12zm-4 0h2v8a1 1 0 0 0 1 1h14a1 1 0 0 0 1-1v-8h2v12h-14a1 1 0 0 0 -1 1v5h-5zm21 14v4h-10v-4zm-12 0v4h-2v-4zm-14-11a3.009 3.009 0 0 1 3-3v18h-1v-9a1 1 0 0 0 -1-1h-1zm-25-1v-6h12v6zm7 2v4h-3v-4zm-8 6h26v8h-26zm56 13h-56v-3h56zm0-5h-2v-4h2zm0-6h-3v-12a3.009 3.009 0 0 1 3 3z" fill="url(#gradient_ice)"/><rect fill="url(#gradient_ice-2)" height="3" rx="1" width="2" x="41" y="18"/><rect fill="url(#gradient_ice-3)" height="3" rx="1" width="2" x="47" y="18"/></g></svg>